<svg xmlns="http://www.w3.org/2000/svg" viewBox="0 0 24 24" width="48" height="48" fill="#1a73e8">
  <path d="M21.47 4.35l-1.34-.56v9.03l2.43-5.86c.41-1.02-.06-2.19-1.09-2.61zm-19.5 3.7L6.93 20c.31.77 1.04 1.24 1.81 1.26.26 0 .53-.05.79-.16l7.37-3.05c.75-.31 1.21-1.05 1.23-1.79.01-.26-.04-.55-.13-.81L13 3.5c-.29-.77-1.03-1.24-1.81-1.25-.26 0-.52.06-.77.15L3.06 5.45c-1.02.42-1.51 1.59-1.09 2.6zm16.15-3.8c-.31-.77-1.04-1.25-1.82-1.27-.26 0-.52.05-.78.15L12 4.25V4.37l4.92 11.86 2.5-1.03L22 7.95c.39-1.03-.13-2.17-1.16-2.54l-2.72-1.16z"/>
</svg> 